<svg width="44" height="44" viewBox="0 0 44 44" fill="none" xmlns="http://www.w3.org/2000/svg">
<mask id="mask0_5_710" style="mask-type:luminance" maskUnits="userSpaceOnUse" x="2" y="2" width="40" height="40">
<path d="M41.0669 2.93323H2.93359V41.0666H41.0669V2.93323Z" fill="white"/>
</mask>
<g mask="url(#mask0_5_710)">
<path d="M41.0669 21.9994C41.0669 32.5299 32.531 41.0666 22.0003 41.0666C11.4695 41.0666 2.93359 32.5299 2.93359 21.9994C2.93359 16.3582 5.38377 11.2894 9.27825 7.79774L10.6501 10.1734C7.5423 13.1562 5.60795 17.3522 5.60795 21.9994C5.60795 31.0529 12.9466 38.3921 22.0003 38.3921C31.054 38.3921 38.3936 31.0529 38.3936 21.9994C38.3936 17.3253 36.4364 13.1076 33.2978 10.1209L34.6697 7.7511C38.5949 11.2437 41.0669 16.3324 41.0669 21.9994Z" fill="#E5E5E5"/>
<path d="M31.5002 5.44581L30.1591 7.76003L28.6384 10.3857L21.9753 21.8903L15.339 10.3986L13.8382 7.7997L12.5 5.4835C15.3043 3.8617 18.56 2.93323 22.0329 2.93323C25.5057 2.93323 28.7108 3.84681 31.5002 5.44581Z" fill="#E5E5E5"/>
<path d="M35.3361 21.9527C35.3361 29.3169 29.3654 35.2865 22.0011 35.2865C14.6367 35.2865 8.66602 29.3169 8.66602 21.9527C8.66602 18.4422 10.023 15.2482 12.2401 12.8675L21.9763 29.7266L31.7491 12.8536C33.9741 15.2353 35.3361 18.4353 35.3361 21.9527Z" fill="#EB2323"/>
</g>
</svg>
