<svg width="38" height="38" viewBox="0 0 38 38" fill="none" xmlns="http://www.w3.org/2000/svg">
<rect width="38" height="38" rx="3" fill="white"/>
<mask id="mask0_5_780" style="mask-type:luminance" maskUnits="userSpaceOnUse" x="10" y="10" width="18" height="18">
<path d="M27.5492 10.45H10.4492V27.5499H27.5492V10.45Z" fill="white"/>
</mask>
<g mask="url(#mask0_5_780)">
<path d="M27.208 19.1942C27.208 18.5879 27.1536 18.005 27.0526 17.4453H19V20.7526H23.6014C23.4033 21.8214 22.8009 22.7269 21.8954 23.3332V25.4785H24.6586C26.2753 23.99 27.208 21.798 27.208 19.1942Z" fill="#4285F4"/>
<path d="M19 27.55C21.3085 27.55 23.2439 26.7844 24.6585 25.4786L21.8953 23.3333C21.1297 23.8463 20.1503 24.1494 19 24.1494C16.7731 24.1494 14.8882 22.6454 14.2158 20.6245H11.3594V22.8397C12.7663 25.634 15.6577 27.55 19 27.55Z" fill="#34A853"/>
<path d="M14.2151 20.6244C14.0441 20.1114 13.9469 19.5634 13.9469 18.9999C13.9469 18.4363 14.0441 17.8884 14.2151 17.3754V15.1602H11.3586C10.7796 16.3144 10.4492 17.6202 10.4492 18.9999C10.4492 20.3795 10.7796 21.6853 11.3586 22.8396L14.2151 20.6244Z" fill="#FBBC04"/>
<path d="M19 13.8505C20.2552 13.8505 21.3823 14.2819 22.2684 15.1291L24.7207 12.6768C23.24 11.2972 21.3046 10.45 19 10.45C15.6577 10.45 12.7663 12.3659 11.3594 15.1602L14.2158 17.3755C14.8882 15.3546 16.7731 13.8505 19 13.8505Z" fill="#E94235"/>
</g>
</svg>
