<svg width="14" height="14" viewBox="0 0 14 14" fill="none" xmlns="http://www.w3.org/2000/svg">
<mask id="mask0_5_740" style="mask-type:alpha" maskUnits="userSpaceOnUse" x="0" y="0" width="14" height="14">
<rect width="14" height="14" fill="#D9D9D9"/>
</mask>
<g mask="url(#mask0_5_740)">
<path d="M7.00013 9.33325C7.7293 9.33325 8.34909 9.07804 8.8595 8.56763C9.36992 8.05721 9.62513 7.43742 9.62513 6.70825C9.62513 5.97909 9.36992 5.35929 8.8595 4.84888C8.34909 4.33846 7.7293 4.08325 7.00013 4.08325C6.27096 4.08325 5.65117 4.33846 5.14076 4.84888C4.63034 5.35929 4.37513 5.97909 4.37513 6.70825C4.37513 7.43742 4.63034 8.05721 5.14076 8.56763C5.65117 9.07804 6.27096 9.33325 7.00013 9.33325ZM7.00013 8.28325C6.56263 8.28325 6.19076 8.13013 5.88451 7.82388C5.57826 7.51763 5.42513 7.14575 5.42513 6.70825C5.42513 6.27075 5.57826 5.89888 5.88451 5.59263C6.19076 5.28638 6.56263 5.13325 7.00013 5.13325C7.43763 5.13325 7.8095 5.28638 8.11576 5.59263C8.42201 5.89888 8.57513 6.27075 8.57513 6.70825C8.57513 7.14575 8.42201 7.51763 8.11576 7.82388C7.8095 8.13013 7.43763 8.28325 7.00013 8.28325ZM7.00013 11.0833C5.64874 11.0833 4.41402 10.726 3.29596 10.0114C2.17791 9.29679 1.33207 8.33186 0.758464 7.11658C0.729297 7.06797 0.709852 7.00721 0.70013 6.93429C0.690408 6.86138 0.685547 6.78603 0.685547 6.70825C0.685547 6.63047 0.690408 6.55513 0.70013 6.48221C0.709852 6.40929 0.729297 6.34853 0.758464 6.29992C1.33207 5.08464 2.17791 4.11971 3.29596 3.40513C4.41402 2.69054 5.64874 2.33325 7.00013 2.33325C8.35152 2.33325 9.58624 2.69054 10.7043 3.40513C11.8224 4.11971 12.6682 5.08464 13.2418 6.29992C13.271 6.34853 13.2904 6.40929 13.3001 6.48221C13.3099 6.55513 13.3147 6.63047 13.3147 6.70825C13.3147 6.78603 13.3099 6.86138 13.3001 6.93429C13.2904 7.00721 13.271 7.06797 13.2418 7.11658C12.6682 8.33186 11.8224 9.29679 10.7043 10.0114C9.58624 10.726 8.35152 11.0833 7.00013 11.0833ZM7.00013 9.91658C8.09874 9.91658 9.10742 9.62735 10.0262 9.04888C10.9449 8.4704 11.6474 7.6902 12.1335 6.70825C11.6474 5.72631 10.9449 4.9461 10.0262 4.36763C9.10742 3.78915 8.09874 3.49992 7.00013 3.49992C5.90152 3.49992 4.89284 3.78915 3.97409 4.36763C3.05534 4.9461 2.35291 5.72631 1.8668 6.70825C2.35291 7.6902 3.05534 8.4704 3.97409 9.04888C4.89284 9.62735 5.90152 9.91658 7.00013 9.91658Z" fill="#737373"/>
</g>
</svg>
