<svg width="26" height="26" viewBox="0 0 26 26" fill="none" xmlns="http://www.w3.org/2000/svg">
<g clip-path="url(#clip0_5_698)">
<path d="M24.9173 13L22.274 9.9775L22.6423 5.98L18.7315 5.09167L16.684 1.625L13.0007 3.20667L9.31732 1.625L7.26982 5.08083L3.35898 5.95833L3.72732 9.96667L1.08398 13L3.72732 16.0225L3.35898 20.0308L7.26982 20.9192L9.31732 24.375L13.0007 22.7825L16.684 24.3642L18.7315 20.9083L22.6423 20.02L22.274 16.0225L24.9173 13ZM10.9315 18.1133L6.81482 13.9858L8.41815 12.3825L10.9315 14.9067L17.269 8.5475L18.8723 10.1508L10.9315 18.1133Z" fill="#16A374"/>
</g>
<defs>
<clipPath id="clip0_5_698">
<rect width="26" height="26" fill="white"/>
</clipPath>
</defs>
</svg>
